<svg xmlns="http://www.w3.org/2000/svg" width="30" height="30" viewBox="0 0 512 512" version="1.1">
	<path d="M 41.500 17.412 C 37.822 19.046, 34.486 22.568, 33.067 26.315 C 32.350 28.207, 32 51.091, 32 96.097 C 32 170.286, 31.754 167.423, 38.566 172.618 L 42.344 175.500 112.099 175.500 C 180.991 175.500, 181.887 175.474, 184.615 173.438 C 189.836 169.540, 191.500 166.316, 191.500 160.099 C 191.500 155.342, 191.016 153.710, 188.709 150.686 C 187.174 148.673, 184.924 146.458, 183.709 145.763 C 182.043 144.811, 169.106 144.377, 131.116 144 L 80.733 143.500 88.545 133 C 149.021 51.718, 257.200 25.174, 347.500 69.460 C 388.806 89.718, 422.003 122.922, 442.519 164.500 C 455.725 191.263, 464 225.217, 464 252.638 C 464 260.692, 465.746 264.942, 470.566 268.618 C 473.718 271.022, 475.298 271.500, 480.099 271.500 C 486.323 271.500, 489.553 269.829, 493.438 264.602 C 495.297 262.101, 495.491 260.483, 495.409 248.164 C 495.083 199.393, 475.226 145.820, 442.370 105.072 C 408.774 63.405, 358.845 32.629, 307 21.630 C 286.932 17.373, 278.469 16.529, 256 16.545 C 231.610 16.563, 218.821 18.089, 197.357 23.546 C 148.227 36.036, 101.035 66.081, 70.051 104.597 L 64.062 112.042 63.781 69.192 L 63.500 26.342 60.618 22.565 C 55.972 16.475, 48.275 14.401, 41.500 17.412 M 25.450 241.407 C 21.301 243.214, 17.222 248.297, 16.399 252.688 C 14.856 260.913, 17.751 289.878, 22.057 309.296 C 27.554 334.088, 41.426 366.417, 55.828 388 C 94.872 446.513, 154.147 483.593, 225.500 494.140 C 239.255 496.173, 274.691 495.871, 289.500 493.594 C 341.782 485.556, 388.668 462.003, 425.651 425.202 C 431.111 419.768, 438.373 411.848, 441.789 407.602 L 448 399.881 448 441.473 C 448 487.737, 447.982 487.596, 454.566 492.618 C 457.718 495.022, 459.298 495.500, 464.099 495.500 C 470.316 495.500, 473.540 493.836, 477.438 488.615 C 479.474 485.887, 479.500 484.991, 479.500 416.099 L 479.500 346.344 476.618 342.566 C 471.363 335.676, 474.490 335.930, 398.556 336.230 C 331.235 336.496, 330.102 336.533, 327.385 338.562 C 323.023 341.819, 320.820 345.420, 320.285 350.166 C 319.630 355.973, 321.811 360.991, 326.565 364.618 L 330.342 367.500 380.805 368 L 431.267 368.500 423.455 379 C 385.443 430.090, 327.085 461.079, 264 463.672 C 182.364 467.029, 105.699 421.233, 69.516 347.500 C 56.334 320.637, 50.079 296.218, 48.217 264.350 C 47.436 250.977, 47.236 249.998, 44.564 246.494 C 39.969 240.470, 32.292 238.427, 25.450 241.407" stroke="none" fill="#14051A" fill-rule="evenodd"/>
</svg>