<svg xmlns="http://www.w3.org/2000/svg" width="20" height="20" viewBox="0 0 512 512" version="1.1">
	<path d="M 458 33.102 C 456.625 33.639, 410.614 78.946, 355.752 133.785 L 256.005 233.491 156.252 133.810 C 47.801 25.437, 54.730 31.703, 45.299 33.472 C 40.377 34.395, 34.395 40.377, 33.472 45.299 C 31.703 54.730, 25.437 47.802, 133.806 156.248 L 233.482 255.995 133.352 356.248 C 24.501 465.233, 30.828 458.238, 32.592 467.637 C 33.491 472.432, 39.688 478.663, 44.444 479.556 C 53.707 481.293, 46.934 487.431, 155.748 378.694 L 255.995 278.518 356.248 378.691 C 465.231 487.588, 458.277 481.296, 467.701 479.528 C 472.623 478.605, 478.605 472.623, 479.528 467.701 C 481.298 458.269, 487.608 465.244, 378.694 356.252 L 278.518 256.005 378.691 155.752 C 487.303 47.054, 481.289 53.685, 479.572 44.529 C 477.863 35.422, 466.916 29.623, 458 33.102" stroke="none" fill="#14051A" fill-rule="evenodd"/>
</svg>