<svg xmlns="http://www.w3.org/2000/svg" width="30" height="30" viewBox="0 0 512 512" version="1.1">
	<path d="M 240.002 1.127 C 193.022 6.564, 150.303 39.956, 133.618 84.281 C 126.989 101.894, 124.485 117.443, 125.266 136.147 C 126.347 162.056, 133.179 183.018, 147.611 204.711 C 153.976 214.278, 165.378 226.785, 173.110 232.682 C 175.800 234.733, 177.998 236.656, 177.995 236.955 C 177.993 237.255, 171.424 240.623, 163.398 244.440 C 98.967 275.083, 54.448 334.018, 42.523 404.456 C 40.204 418.152, 39.085 438.772, 40.146 448.255 C 43.352 476.916, 63.128 500.143, 92 509.158 L 99.500 511.500 256 511.500 L 412.500 511.500 420 509.158 C 448.872 500.143, 468.648 476.916, 471.854 448.255 C 472.915 438.772, 471.796 418.152, 469.477 404.456 C 457.552 334.018, 413.033 275.083, 348.602 244.440 C 340.576 240.623, 334.007 237.255, 334.005 236.955 C 334.002 236.656, 336.200 234.733, 338.890 232.682 C 351.429 223.119, 365.983 204.676, 373.982 188.211 C 387.356 160.685, 390.630 127.181, 382.790 98.095 C 365.577 34.240, 305.632 -6.468, 240.002 1.127 M 245.275 40.128 C 227.918 41.948, 207.690 51.181, 194.355 63.369 C 150.029 103.883, 155.665 175.093, 205.802 208.007 C 264.711 246.680, 343.118 206.904, 347.623 136.061 C 350.680 87.981, 313.752 45.051, 265.038 40.052 C 259.400 39.473, 254.498 39.060, 254.144 39.133 C 253.790 39.206, 249.799 39.654, 245.275 40.128 M 229.742 264.594 C 209.868 267.697, 193.829 272.986, 175 282.646 C 158.123 291.306, 145.830 300.258, 131.950 314 C 99.035 346.586, 81.222 386.539, 79.338 432 C 78.833 444.189, 78.986 446.049, 80.922 451.147 C 83.913 459.022, 89.719 465.244, 97.782 469.213 L 104.458 472.500 256 472.500 L 407.542 472.500 414.218 469.213 C 422.281 465.244, 428.087 459.022, 431.078 451.147 C 433.014 446.049, 433.167 444.189, 432.662 432 C 430.392 377.229, 403.457 327.792, 358.169 295.276 C 342.330 283.903, 318.573 272.902, 299.462 268.090 C 279.250 263, 249.506 261.509, 229.742 264.594" stroke="none" fill="#14051A" fill-rule="evenodd"/>
</svg>