<svg xmlns="http://www.w3.org/2000/svg" width="20" height="20" viewBox="0 0 512 512" version="1.1">
	<path d="M 401.265 1.542 C 388.227 5.053, 397.041 -3.354, 201.745 191.841 C 79.105 314.417, 17.666 376.498, 17.014 378.500 C 15.669 382.628, -0 491.317, 0 496.515 C 0 504.100, 7.626 512, 14.948 512 C 19.874 512, 129.709 496.249, 133.500 494.998 C 135.490 494.342, 198.334 432.143, 320.159 310.255 C 470.580 159.756, 504.292 125.547, 506.434 121.235 C 510.642 112.763, 512.319 104.609, 511.728 95.500 C 511.090 85.675, 508.277 77.930, 502.567 70.275 C 495.438 60.720, 442.258 8.841, 436.425 5.753 C 425.951 0.207, 412.295 -1.429, 401.265 1.542 M 406.500 33.916 C 404.162 35.011, 396.685 41.653, 388.508 49.900 L 374.515 64.012 411.252 100.748 L 447.988 137.485 462.019 123.492 C 477.977 107.577, 480.592 103.504, 479.529 96.212 C 478.863 91.641, 477.985 90.639, 450.173 62.728 C 421.305 33.758, 419.115 31.973, 412.500 32.028 C 411.400 32.037, 408.700 32.887, 406.500 33.916 M 199.339 239.250 L 47.180 391.500 41.075 433.902 C 37.717 457.223, 35.103 476.436, 35.265 476.598 C 35.427 476.760, 54.671 474.200, 78.030 470.909 L 120.500 464.925 272.997 312.465 L 425.494 160.005 389.002 123.502 C 368.932 103.426, 352.282 87, 352.004 87 C 351.725 87, 283.026 155.512, 199.339 239.250" stroke="none" fill="#14051A" fill-rule="evenodd"/>
</svg>