<svg xmlns="http://www.w3.org/2000/svg" width="30" height="30" viewBox="0 0 512 512" version="1.1">
	<path d="M 34.500 77.411 C 18.067 81.489, 4.539 95.422, 1.110 111.799 C -0.456 119.276, -0.456 392.724, 1.110 400.201 C 3.715 412.644, 13.066 424.959, 24.188 430.595 C 35.489 436.322, 21.708 436, 255.661 436 C 411.322 436, 472.368 435.689, 476.201 434.875 C 483.553 433.313, 492.369 428.670, 498.024 423.380 C 503.426 418.328, 509.587 407.433, 510.591 401.159 C 510.960 398.847, 511.654 396.714, 512.131 396.419 C 512.616 396.119, 513 333.589, 513 254.882 C 513 174.553, 512.623 114.115, 512.125 114.423 C 511.644 114.720, 510.950 113.090, 510.584 110.800 C 510.218 108.511, 508.300 103.558, 506.322 99.794 C 500.297 88.328, 488.979 79.807, 476.201 77.116 C 468.161 75.423, 41.361 75.708, 34.500 77.411 M 148.502 203.064 C 201.851 256.449, 246.715 300.774, 248.200 301.564 C 249.686 302.354, 253.195 303, 256 303 C 258.805 303, 262.314 302.354, 263.800 301.564 C 265.285 300.774, 310.149 256.449, 363.498 203.064 L 460.496 106 256 106 L 51.504 106 148.502 203.064 M 0.486 256 C 0.486 333.825, 0.605 365.662, 0.750 326.750 C 0.895 287.837, 0.895 224.162, 0.750 185.250 C 0.605 146.337, 0.486 178.175, 0.486 256 M 30 256 L 30 385.498 94.749 320.749 L 159.498 256 94.749 191.251 L 30 126.502 30 256 M 416.999 191.501 L 352.504 256.002 417.252 320.750 L 482 385.498 482 256.249 C 482 185.162, 481.886 127, 481.747 127 C 481.608 127, 452.471 156.025, 416.999 191.501 M 115.500 342 L 51.506 406 256.002 406 L 460.498 406 396.280 341.782 L 332.063 277.564 308.281 301.125 C 286.521 322.684, 283.825 325.018, 276.552 328.593 L 268.604 332.500 256 332.500 C 243.404 332.500, 243.392 332.498, 235.448 328.632 C 228.074 325.043, 225.822 323.073, 204.280 301.382 C 191.509 288.522, 180.708 278, 180.277 278 C 179.847 278, 150.697 306.800, 115.500 342" stroke="none" fill="#14051A" fill-rule="evenodd"/>
</svg>