<svg xmlns="http://www.w3.org/2000/svg" width="30" height="30" viewBox="0 0 512 512" version="1.1">
	<path d="M 227.500 28.471 C 215.387 30.129, 203.887 32.446, 194.500 35.118 C 107.365 59.923, 43.673 131.488, 29.409 220.617 C 27.207 234.378, 26.444 265.270, 27.962 279.238 C 35.913 352.430, 75.733 414.962, 138.477 452.784 C 186.984 482.024, 246.219 491.953, 303 480.361 C 349.083 470.953, 393.690 445.513, 425.017 410.773 C 464.839 366.612, 485 314.340, 485 255.251 C 485 168.429, 435.287 88.603, 357.500 50.520 C 335.827 39.910, 318.291 34.199, 294 29.840 C 279.085 27.163, 242.542 26.411, 227.500 28.471 M 232 60.087 C 209.889 62.921, 189.677 69.025, 169.500 78.963 C 128.952 98.934, 99.292 128.523, 79.047 169.199 C 65.340 196.740, 59 224.190, 59 256 C 59 287.810, 65.340 315.260, 79.047 342.801 C 90.021 364.848, 100.825 379.745, 118.123 396.679 C 135.137 413.335, 148.210 422.574, 169.500 432.992 C 198.084 446.978, 224.117 453, 256 453 C 288.081 453, 314.108 446.990, 342.500 433.027 C 383.194 413.013, 413.104 383.096, 433.004 342.500 C 446.977 313.995, 453 287.942, 453 256 C 453 224.045, 446.935 197.780, 433.027 169.500 C 422.599 148.296, 411.746 133.030, 395.497 116.708 C 364.917 85.990, 324.838 66.071, 282.424 60.511 C 270.113 58.897, 243.057 58.670, 232 60.087 M 251.340 149.936 C 234.751 154.002, 229.368 174.969, 241.988 186.370 C 256.369 199.363, 278.412 188.039, 276.791 168.491 C 275.769 156.174, 263.220 147.025, 251.340 149.936 M 247.990 221.250 C 246.172 222.488, 243.743 224.770, 242.592 226.323 C 240.524 229.114, 240.497 229.921, 240.230 297.573 C 239.967 364.184, 240.012 366.104, 241.949 369.899 C 247.966 381.695, 265.795 381.009, 270.426 368.804 C 271.890 364.948, 272.031 357.449, 271.780 296.823 C 271.503 229.940, 271.475 229.112, 269.408 226.323 C 265.861 221.537, 261.217 219, 256 219 C 252.768 219, 250.261 219.704, 247.990 221.250" stroke="none" fill="#14051A" fill-rule="evenodd"/>
</svg>