<svg xmlns="http://www.w3.org/2000/svg" width="30" height="30" viewBox="0 0 512 512" version="1.1">
	<path d="M 239.769 15.975 C 191.595 22.100, 149.916 53.188, 131.512 96.723 C 122.393 118.294, 120.024 136.073, 120.009 183.029 L 120 210.557 113.152 211.636 C 96.698 214.226, 84.358 224.329, 77.897 240.500 L 75.500 246.500 75.210 349.500 C 75.003 423.287, 75.244 454.434, 76.062 459.320 C 79.085 477.372, 91.547 490.782, 109.693 495.508 C 118.447 497.788, 393.696 497.751, 402.458 495.469 C 415.374 492.105, 425.973 483.908, 431.493 473.014 C 437.003 462.140, 436.965 462.968, 436.965 354 C 436.965 246.308, 436.964 246.284, 431.921 235.555 C 426.247 223.485, 413.012 213.866, 399.054 211.668 L 392 210.557 391.991 183.029 C 391.977 137.912, 389.838 120.269, 381.977 100.416 C 365.108 57.818, 326.884 26.161, 281.884 17.518 C 271.923 15.604, 249.225 14.773, 239.769 15.975 M 246 45.560 C 244.625 45.796, 240.350 46.499, 236.500 47.123 C 203.012 52.553, 171.545 77.938, 158.560 110 C 151.874 126.509, 151.717 127.829, 151.268 171.250 L 150.857 211 256 211 L 361.143 211 360.732 171.250 C 360.350 134.307, 360.169 130.962, 358.169 123.875 C 352.442 103.581, 343.309 88.272, 328.346 73.880 C 314.495 60.557, 297.434 51.675, 277.500 47.409 C 270.506 45.912, 250.724 44.751, 246 45.560 M 113.034 242.752 C 111.128 243.713, 108.653 246.075, 107.534 248 C 105.525 251.458, 105.500 252.742, 105.500 354 C 105.500 454.354, 105.541 456.569, 107.478 459.771 C 108.566 461.570, 111.296 463.933, 113.544 465.021 C 117.556 466.964, 120.170 467, 256 467 C 391.830 467, 394.444 466.964, 398.456 465.021 C 400.704 463.933, 403.434 461.570, 404.522 459.771 C 406.459 456.569, 406.500 454.354, 406.500 354 C 406.500 252.742, 406.475 251.458, 404.466 248 C 403.347 246.075, 400.872 243.713, 398.966 242.752 C 395.716 241.112, 386.822 241.003, 256 241.003 C 125.178 241.003, 116.284 241.112, 113.034 242.752 M 244 287.814 C 224.350 292.950, 210.971 310.652, 211.012 331.460 C 211.045 348.112, 220.679 363.917, 234.908 370.660 L 240.900 373.500 240.951 392 C 241.010 412.786, 241.779 415.861, 247.790 419.331 C 252.102 421.821, 259.887 421.837, 264.097 419.365 C 270.220 415.770, 270.994 412.726, 271.050 392.016 L 271.100 373.500 276.918 370.747 C 291.163 364.005, 300.956 348.021, 300.988 331.460 C 301.048 301.210, 273.491 280.106, 244 287.814 M 250.643 316.977 C 239.151 320.627, 237.592 339.257, 248.351 344.362 C 256.069 348.025, 265.691 345.487, 269.050 338.902 C 272.590 331.963, 270.788 323.029, 265 318.827 C 262.020 316.663, 254.630 315.711, 250.643 316.977" stroke="none" fill="#14051A" fill-rule="evenodd"/>
</svg>