<svg width="50" height="50" viewBox="0 0 75 75" fill="none" xmlns="http://www.w3.org/2000/svg">
<rect x="0.5" y="0.5" width="74" height="74" rx="9.5" stroke="#ff33bb"/>
<path fill-rule="evenodd" clip-rule="evenodd" d="M20.823 11.3941C16.8884 11.4234 13.7143 14.6214 13.7143 18.5561V25.6183C13.7143 39.7024 13.7168 39.7941 14.1246 40.5544C14.5919 41.4257 15.6376 42.1329 16.6854 42.2864C17.0566 42.3408 17.3896 42.0531 17.3896 41.6779V28.5747V16.5007C17.3896 15.5393 18.169 14.7598 19.1305 14.7598C20.0919 14.7598 20.8714 15.5393 20.8714 16.5008V27.1292C20.8714 35.8852 20.9354 39.6719 21.0907 40.0919C21.5047 41.2117 23.0446 42.3438 24.1536 42.3438C24.5455 42.3438 24.5466 42.3002 24.5466 28.5431V21.1743C24.5466 17.6305 27.4347 14.7659 30.9783 14.7948C37.258 14.8459 37.4296 14.8566 38.2408 15.2474C39.4541 15.8321 40.4518 16.7104 41.0973 17.762C41.6142 18.6041 41.6656 18.8379 41.6656 20.3465C41.6656 21.855 41.6142 22.0888 41.0973 22.931C40.386 24.0895 39.32 24.9685 37.9168 25.5534C36.8854 25.9832 36.6317 26.0099 32.961 26.0771C29.6405 26.1379 28.9896 26.195 28.3672 26.4804C27.5133 26.8718 26.7054 27.8956 26.5446 28.7893C26.4851 29.1204 26.7396 29.4247 27.076 29.4247H30.4321H32.9563C33.8624 29.4247 34.6914 29.9348 35.0999 30.7437C35.4662 31.4693 35.7658 32.1371 35.7658 32.2277C35.7658 32.3246 34.4462 32.3926 32.5688 32.3926C30.805 32.3926 29.3771 33.826 29.3837 35.5897L29.4254 46.6647C29.4742 59.5812 29.5098 60.9866 29.8005 61.4606C30.4586 62.5336 31.6942 63.2937 32.7802 63.2937C33.0403 63.2937 33.2512 63.0828 33.2512 62.8227V49.5017V37.3539C33.2512 36.4458 33.9873 35.7097 34.8954 35.7097C35.8035 35.7097 36.5398 36.4457 36.5401 37.3539L36.5438 48.236C36.5479 60.0927 36.5674 60.8007 36.9096 61.4808C37.3516 62.3593 38.3058 63.044 39.3966 63.2652C39.8195 63.351 40.2148 63.0277 40.2148 62.5962V49.5616V42.0273C40.2148 38.5369 43.0596 35.7156 46.5498 35.7444L51.7276 35.7874C52.4914 35.7937 53.2464 35.9518 53.9487 36.2525C55.3252 36.8419 56.3906 37.7998 57.0222 39.0151C57.758 40.4318 57.7447 42.3807 56.9895 43.7686C56.3438 44.9552 55.2497 45.8884 53.7785 46.5076C52.7455 46.9423 52.4931 46.9697 48.7107 47.0549C44.7433 47.1445 44.7275 47.1464 43.9081 47.6365C43.0686 48.1386 42.3552 49.2101 42.3469 49.9818C42.3445 50.1981 42.5192 50.3747 42.7355 50.3748L46.2597 50.3762C48.6644 50.3771 50.8665 51.7236 51.9633 53.8637L52.3904 54.6971C56.4873 62.691 56.4206 62.5786 57.4033 63.1409C58.0805 63.5287 58.5099 63.6429 59.2902 63.6429C60.3475 63.6429 60.9123 63.5226 60.9123 63.2977C60.9123 63.2244 59.597 60.6205 57.9894 57.5115C56.3817 54.4024 54.8644 51.4563 54.6176 50.9645C54.3732 50.4773 54.5846 49.8847 55.0821 49.6621L55.7747 49.3524C58.3666 48.1932 60.1939 46.2098 61.0129 43.6668C61.4706 42.2461 61.3346 39.5004 60.7381 38.1146C59.8061 35.9494 57.571 33.9026 55.1116 32.9625C54.2786 32.6439 53.3953 32.4772 52.5034 32.4702L46.9744 32.4269L41.7814 32.3861C40.7411 32.378 39.7864 31.8081 39.2854 30.8963C38.8391 30.0841 38.4757 29.3226 38.4778 29.2039C38.4799 29.0854 39.1109 28.7214 39.8802 28.3951C42.698 27.2 44.9153 24.538 45.4424 21.7169C46.2483 17.4049 43.0247 12.9246 38.2093 11.6641C37.0899 11.3712 32.81 11.3047 20.823 11.3941Z" fill="#ff33bb"/>
</svg>
