<svg xmlns="http://www.w3.org/2000/svg" width="30" height="30" viewBox="0 0 512 512" version="1.1">
	<path d="M 66.105 1.534 C 51.101 4.818, 40.687 9.811, 29.755 18.962 C 18.117 28.704, 8.895 42.661, 4.292 57.500 L 1.500 66.500 1.500 256 L 1.500 445.500 4.292 454.500 C 12.325 480.399, 32.601 500.675, 58.500 508.708 L 67.500 511.500 181.500 511.500 L 295.500 511.500 304.500 508.708 C 330.432 500.664, 350.840 480.232, 358.647 454.500 C 361.293 445.778, 361.389 444.618, 361.763 417 L 362.150 388.500 359.291 383.034 C 356.958 378.576, 355.449 377.055, 351.101 374.784 C 344.293 371.228, 339.707 371.228, 332.899 374.784 C 328.584 377.038, 327.038 378.584, 324.784 382.899 L 322 388.228 322 411.565 C 322 425.035, 321.525 437.142, 320.876 440.201 C 317.629 455.503, 305.503 467.629, 290.201 470.876 C 282.734 472.460, 80.266 472.460, 72.799 470.876 C 57.497 467.629, 45.371 455.503, 42.124 440.201 C 40.527 432.672, 40.527 79.328, 42.124 71.799 C 45.371 56.497, 57.497 44.371, 72.799 41.124 C 80.266 39.540, 282.734 39.540, 290.201 41.124 C 301.512 43.524, 312.281 51.671, 317.293 61.619 C 321.273 69.520, 322 75.518, 322 100.435 L 322 123.772 324.784 129.101 C 327.038 133.416, 328.584 134.962, 332.899 137.216 C 339.707 140.772, 344.293 140.772, 351.101 137.216 C 355.449 134.945, 356.958 133.424, 359.291 128.966 L 362.150 123.500 361.763 95 C 361.389 67.382, 361.293 66.222, 358.647 57.500 C 350.840 31.768, 330.432 11.336, 304.500 3.292 L 295.500 0.500 184 0.317 C 91.630 0.165, 71.403 0.374, 66.105 1.534 M 431.500 172.896 C 426.844 175.051, 422.576 179.313, 421.064 183.315 C 419.703 186.917, 419.695 195.050, 421.048 198.685 C 421.625 200.233, 430.058 209.488, 439.788 219.250 L 457.479 237 335.354 237 L 213.228 237 207.899 239.784 C 203.584 242.038, 202.038 243.584, 199.784 247.899 C 196.228 254.707, 196.228 259.293, 199.784 266.101 C 202.038 270.416, 203.584 271.962, 207.899 274.216 L 213.228 277 335.354 277 L 457.479 277 439.788 294.750 C 430.058 304.512, 421.625 313.767, 421.048 315.315 C 419.695 318.950, 419.703 327.083, 421.064 330.685 C 423.565 337.305, 432.055 342.956, 439.500 342.956 C 447.095 342.956, 450.450 340.295, 478.057 312.366 C 502.785 287.351, 504.852 284.983, 508.057 278 C 511.441 270.629, 511.500 270.267, 511.500 257 C 511.500 243.733, 511.441 243.371, 508.057 236 C 504.852 229.017, 502.785 226.649, 478.057 201.634 C 460.739 184.114, 450.108 174.120, 447.500 172.906 C 442.414 170.539, 436.599 170.535, 431.500 172.896" stroke="none" fill="#14051A" fill-rule="evenodd"/>
</svg>