<svg xmlns="http://www.w3.org/2000/svg" width="512" height="512" viewBox="0 0 512 512" version="1.1">
	<path d="M 184.500 49.649 C 156.272 55.639, 136.070 80.441, 136.015 109.174 L 136 116.848 93.750 117.265 C 46.915 117.727, 45.831 117.859, 32.898 124.634 C 16.375 133.290, 4.643 149.440, 1.033 168.500 C 0.213 172.829, -0.019 207.929, 0.198 294.500 L 0.500 414.500 3.524 422.500 C 10.930 442.097, 25.185 455.379, 45.556 461.666 C 51.239 463.419, 60.483 463.500, 256 463.500 C 451.517 463.500, 460.761 463.419, 466.444 461.666 C 481.269 457.091, 493.780 448.054, 501.628 436.251 C 505.608 430.267, 511 416.593, 511 412.487 C 511 411.184, 511.450 409.840, 512 409.500 C 512.658 409.094, 513 367.970, 513 289.382 C 513 221.341, 512.623 170.115, 512.125 170.423 C 511.644 170.720, 510.950 169.090, 510.584 166.800 C 507.960 150.389, 494.882 132.900, 479.022 124.591 C 466.179 117.864, 465.043 117.727, 418.250 117.265 L 376 116.848 375.985 109.174 C 375.929 80.153, 355.530 55.438, 326.792 49.573 C 315.702 47.310, 195.219 47.374, 184.500 49.649 M 246 168.198 C 219.592 170.139, 191.649 183.307, 172.839 202.672 C 138.703 237.817, 130.255 290.890, 151.801 334.835 C 168.573 369.044, 201.150 392.850, 238.996 398.555 C 288.174 405.969, 336.953 380.638, 359.457 336 C 391.293 272.851, 360.010 196.445, 293 173.685 C 278.474 168.751, 263.015 166.946, 246 168.198 M 0.484 290.500 C 0.484 356.500, 0.604 383.647, 0.750 350.827 C 0.896 318.007, 0.896 264.007, 0.750 230.827 C 0.604 197.647, 0.484 224.500, 0.484 290.500 M 245.174 223.120 C 227.087 226.128, 208.181 240.646, 200.402 257.500 C 195.141 268.899, 193.282 285.937, 196.037 297.500 C 201.193 319.142, 219.183 337.548, 240.511 343.003 C 268.747 350.224, 298.537 336.603, 310.835 310.846 C 313.026 306.256, 315.310 300.115, 315.910 297.201 C 317.472 289.609, 317.254 275.409, 315.470 268.460 C 307.574 237.711, 276.797 217.860, 245.174 223.120" stroke="none" fill="white" fill-rule="evenodd"/>
</svg>