<svg xmlns="http://www.w3.org/2000/svg" width="28" height="28" viewBox="0 0 512 512" version="1.1">
	<path d="M 244.919 1.833 C 237.645 3.732, 228.532 8.814, 224.044 13.474 C 219.130 18.576, 214.197 27.840, 212.559 35.041 C 211.213 40.957, 211 53.467, 211 126.447 L 211 211 126.447 211 C 32.498 211, 33.580 210.932, 22.343 217.570 C 11.022 224.258, 3.338 235.528, 0.937 248.966 C -2.190 266.463, 6.599 285.129, 22.343 294.430 C 33.580 301.068, 32.498 301, 126.447 301 L 211 301 211 385.553 C 211 479.502, 210.932 478.420, 217.570 489.657 C 224.258 500.978, 235.528 508.662, 248.966 511.063 C 266.463 514.190, 285.129 505.401, 294.430 489.657 C 301.068 478.420, 301 479.502, 301 385.553 L 301 301 386.250 300.942 C 463.498 300.890, 472.118 300.723, 478.081 299.167 C 485.355 297.268, 494.468 292.186, 498.956 287.526 C 503.647 282.655, 508.813 273.213, 510.112 267.135 C 510.775 264.036, 511.695 261.073, 512.158 260.550 C 513.286 259.277, 513.242 249.732, 512.112 250.431 C 511.624 250.733, 510.925 248.983, 510.559 246.543 C 508.977 235.992, 500.165 223.778, 489.657 217.570 C 478.420 210.932, 479.502 211, 385.553 211 L 301 211 300.942 125.750 C 300.890 48.502, 300.723 39.882, 299.167 33.919 C 297.268 26.645, 292.186 17.532, 287.526 13.044 C 282.424 8.130, 273.160 3.197, 265.959 1.559 C 257.385 -0.391, 253.233 -0.337, 244.919 1.833 M 0.300 256 C 0.300 259.025, 0.487 260.262, 0.716 258.750 C 0.945 257.238, 0.945 254.762, 0.716 253.250 C 0.487 251.738, 0.300 252.975, 0.300 256" stroke="none" fill="#B9B9B9" fill-rule="evenodd"/>
</svg>