<svg xmlns="http://www.w3.org/2000/svg" width="30" height="30" viewBox="0 0 512 512" version="1.1">
	<path d="M 238 0.591 C 236.075 0.817, 230.225 1.465, 225 2.032 C 178.068 7.124, 129.699 28.041, 92.122 59.493 C 42.062 101.394, 10.511 159.220, 1.820 225 C 0.201 237.253, 0.201 274.747, 1.820 287 C 9.649 346.253, 35.061 397.458, 77.105 438.696 C 117.701 478.514, 167.495 502.582, 225 510.180 C 237.253 511.799, 274.747 511.799, 287 510.180 C 369.261 499.311, 438.239 452.982, 479.332 381 C 495.674 352.375, 507.227 316.140, 510.102 284.500 C 510.701 277.900, 511.598 271.719, 512.096 270.764 C 513.371 268.316, 513.280 239.709, 512 240.500 C 511.392 240.876, 511 239.418, 511 236.783 C 511 224.102, 505.824 196.960, 499.830 178.212 C 480.111 116.531, 438.391 65.431, 381 32.668 C 354.015 17.262, 320.551 6.220, 288 1.979 C 279.230 0.837, 244.200 -0.136, 238 0.591 M 233 31.111 C 219.515 32.453, 199.638 36.801, 185.031 41.604 C 117.994 63.647, 63.621 118.021, 41.608 185.031 C 28.337 225.429, 26.618 267.160, 36.500 309.043 C 43.771 339.866, 58.160 369.458, 78.415 395.248 C 81.762 399.509, 84.754 402.997, 85.063 402.998 C 85.373 402.999, 86.666 399.403, 87.936 395.007 C 92.842 378.031, 103.934 355.969, 114.839 341.500 C 133.697 316.479, 160.595 295.425, 187.747 284.434 C 191.732 282.820, 194.995 281.255, 194.997 280.955 C 194.999 280.656, 192.791 278.726, 190.091 276.667 C 174.593 264.848, 160.847 245.570, 154.318 226.500 C 145.402 200.453, 146.917 170.853, 158.418 146.402 C 176.111 108.789, 214.864 84.012, 256 84.012 C 303.458 84.012, 346.291 116.405, 359.421 162.225 C 365.381 183.028, 364.742 205.862, 357.615 226.700 C 350.983 246.094, 337.071 265.167, 320.020 278.242 L 316.541 280.910 320.520 282.526 C 369.280 302.330, 406.876 342.328, 422.702 391.238 C 424.791 397.694, 426.725 402.980, 427 402.986 C 427.810 403.002, 439.251 388.128, 444.680 380 C 477.072 331.510, 489.145 269.066, 477.355 211 C 455.943 105.550, 361.440 28.999, 254.076 30.133 C 247.159 30.206, 237.675 30.646, 233 31.111 M 245 114.628 C 214.475 120.548, 191.864 139.468, 182.535 166.899 C 169.722 204.570, 187.635 245.673, 224.160 262.410 C 234.127 266.978, 243.898 269, 256 269 C 268.102 269, 277.873 266.978, 287.840 262.410 C 324.365 245.673, 342.278 204.570, 329.465 166.899 C 321.314 142.933, 301.331 123.922, 277 116.985 C 269.660 114.892, 250.800 113.503, 245 114.628 M 0.402 256 C 0.402 264.525, 0.556 268.012, 0.743 263.750 C 0.931 259.488, 0.931 252.512, 0.743 248.250 C 0.556 243.988, 0.402 247.475, 0.402 256 M 245 301.034 C 209.981 303.689, 178.428 318.407, 153 343.948 C 135.692 361.333, 124.323 379.797, 117.165 402.144 C 114.610 410.118, 110.517 429.099, 111.268 429.490 C 111.396 429.557, 114.425 431.891, 118 434.678 C 143.849 454.827, 176.395 469.914, 209 476.860 C 225.750 480.428, 236.058 481.431, 256 481.431 C 275.942 481.431, 286.250 480.428, 303 476.860 C 335.605 469.914, 368.151 454.827, 394 434.678 C 397.575 431.891, 400.615 429.546, 400.755 429.467 C 400.896 429.388, 400.330 425.421, 399.499 420.653 C 391.443 374.455, 359.165 332.871, 316.500 313.725 C 301.136 306.830, 285.943 302.709, 271.500 301.520 C 257.704 300.385, 254.368 300.323, 245 301.034" stroke="none" fill="#14051A" fill-rule="evenodd"/>
</svg>