<svg xmlns="http://www.w3.org/2000/svg" width="30" height="30" viewBox="0 0 512 512" version="1.1">
	<path d="M 37 37.433 C 21.279 41.814, 8.327 54.244, 2.949 70.113 C 1.101 75.566, 0.862 77.963, 1.316 86.500 C 1.784 95.279, 4.347 106.240, 22.302 176.250 L 42.756 256 22.302 335.750 C 4.347 405.760, 1.784 416.721, 1.316 425.500 C 0.862 434.037, 1.101 436.434, 2.949 441.887 C 7.448 455.162, 16.800 465.629, 29.587 471.702 C 36.090 474.790, 38.413 475.353, 46.377 475.769 C 53.304 476.131, 57.096 475.823, 61.515 474.539 C 69.297 472.276, 477.508 302.884, 486.304 298.267 C 497.488 292.396, 507.154 279.972, 509.940 267.885 C 511.239 262.250, 511.239 249.750, 509.940 244.115 C 507.154 232.028, 497.488 219.604, 486.304 213.733 C 478.020 209.384, 69.723 39.878, 62.068 37.610 C 55.689 35.719, 43.459 35.633, 37 37.433 M 40.121 67.113 C 33.822 70.312, 29.995 76.685, 30.016 83.946 C 30.027 87.842, 35.785 112.040, 49.305 165 L 68.578 240.500 145.039 241 C 219.227 241.485, 221.601 241.559, 224.895 243.500 C 230.203 246.626, 232.500 250.402, 232.500 256 C 232.500 261.598, 230.203 265.374, 224.895 268.500 C 221.601 270.441, 219.227 270.515, 145.039 271 L 68.578 271.500 49.305 347 C 35.785 399.960, 30.027 424.158, 30.016 428.054 C 29.995 435.528, 33.848 441.780, 40.442 444.972 C 49.851 449.527, 37.197 454.325, 263 360.584 C 376.575 313.434, 471.369 273.770, 473.654 272.442 C 484.878 265.919, 484.878 246.081, 473.654 239.558 C 471.369 238.230, 376.575 198.563, 263 151.408 C 35.840 57.095, 49.602 62.300, 40.121 67.113" stroke="none" fill="#14051A" fill-rule="evenodd"/>
</svg>
