<svg xmlns="http://www.w3.org/2000/svg" width="30" height="30" viewBox="0 0 512 512" version="1.1">
	<path d="M 240 6.999 C 136.403 13.957, 48.471 83.692, 18.463 182.691 C 10.461 209.092, 7.462 232.406, 8.271 261.930 C 10.137 330.002, 38.974 392.970, 89.309 438.884 C 129.330 475.390, 179.264 497.528, 233.856 502.968 C 280.451 507.611, 334.392 496.442, 374.500 473.845 C 387.205 466.687, 389.893 464.425, 392.598 458.617 C 399.030 444.802, 391.888 428.745, 377.596 424.889 C 370.532 422.984, 365.340 424.345, 350.922 431.881 C 329.495 443.081, 312.635 448.904, 289.234 453.187 C 273.688 456.032, 240.761 456.276, 225.500 453.660 C 180.660 445.974, 142.617 426.142, 112.265 394.629 C 63.383 343.879, 44.942 272.458, 63.075 204.125 C 86.093 117.386, 165.866 56.074, 255.789 56.008 C 299.701 55.976, 342.531 70.570, 378.500 97.820 C 387.293 104.482, 405.270 122.301, 412.477 131.500 C 451.705 181.565, 465.306 245.571, 449.578 306.102 C 445.629 321.302, 443.328 326.480, 437.870 332.452 C 420.797 351.132, 390.686 346.280, 379.211 323 L 376.500 317.500 376 235.500 C 375.436 142.952, 376.059 149.743, 367.433 142.150 C 360.812 136.321, 353.208 134.677, 344.616 137.216 C 336.824 139.518, 328 150.740, 328 158.346 C 328 159.551, 326.206 158.799, 320.910 155.373 C 285.639 132.556, 240.423 129.905, 202.916 148.455 C 190.037 154.824, 182.563 160.264, 171.373 171.411 C 155.142 187.581, 145.219 204.848, 139.227 227.346 C 136.725 236.740, 136.526 238.922, 136.577 256.500 C 136.627 273.894, 136.857 276.319, 139.297 285.191 C 145.452 307.567, 156.373 326.307, 172.140 341.547 C 194.606 363.261, 220.018 374.257, 251 375.671 C 277.424 376.876, 305.919 368.183, 326.509 352.635 C 330.249 349.811, 334.074 346.926, 335.008 346.225 C 336.509 345.099, 337.148 345.704, 340.483 351.406 C 348.924 365.840, 365.578 379.944, 381.464 386.112 C 406.828 395.961, 436.941 392.682, 459 377.668 C 470.610 369.766, 481.397 356.932, 487.429 343.840 C 493.199 331.320, 498.941 309.025, 502.199 286.500 C 504.180 272.799, 503.837 235.348, 501.595 220.500 C 489.036 137.346, 439.526 69.069, 364.965 32.079 C 326.643 13.067, 282.263 4.160, 240 6.999 M 241.500 185.430 C 226.348 188.990, 216.234 194.590, 205.412 205.412 C 196.418 214.406, 191.175 222.863, 187.169 234.833 C 184.913 241.578, 184.608 244.123, 184.632 256 C 184.656 267.727, 184.993 270.507, 187.197 277.167 C 191.257 289.434, 196.346 297.557, 205.899 307.020 C 212.614 313.671, 216.364 316.468, 223 319.773 C 235.497 325.996, 242.180 327.494, 257 327.393 C 267.654 327.320, 270.682 326.919, 277.500 324.679 C 288.960 320.915, 297.349 315.657, 306.503 306.503 C 315.657 297.349, 320.915 288.960, 324.679 277.500 C 326.919 270.682, 327.320 267.654, 327.393 257 C 327.494 242.180, 325.996 235.497, 319.773 223 C 316.468 216.364, 313.671 212.614, 307.020 205.899 C 297.488 196.277, 289.266 191.151, 277.167 187.286 C 267.485 184.193, 250.520 183.311, 241.500 185.430" stroke="none" fill="#14051A" fill-rule="evenodd"/>
</svg>